<svg width="36" height="40" viewBox="0 0 36 40" fill="none" xmlns="http://www.w3.org/2000/svg">
<path fill-rule="evenodd" clip-rule="evenodd" d="M0.478219 0.2986L0.109419 0.5973L0.0670193 10.8474L0.0247192 21.0974L0.436919 21.2853C1.45142 21.7475 1.43752 21.8906 1.43752 10.9983V1.25H4.25002H7.06252V20V38.75H4.25002H1.43752V31.0329C1.43752 22.4045 1.42802 22.3257 0.440219 22.7757L0.0313192 22.9621V30.9419C0.0313192 39.3578 0.0535192 39.639 0.741419 39.9029C1.07202 40.0298 34.928 40.0298 35.2586 39.9029C35.9767 39.6274 35.9687 39.798 35.9688 24.7265C35.9688 9.6833 35.9924 10.1563 35.2399 10.1563C34.5631 10.1562 34.5625 10.1682 34.5625 24.7554V38.75H21.5156H8.46882V20V1.25H18.4688H28.4688V3.9671C28.4688 7.6524 28.2339 7.4061 31.8141 7.4738C34.4331 7.5234 34.5625 7.5404 34.5625 7.8357C34.5625 8.3446 34.8628 8.75 35.2399 8.75C35.8204 8.75 35.9688 8.4512 35.9688 7.2823L35.9687 6.1897L32.888 3.0948L29.8072 0H15.3271C1.30392 0 0.835519 0.00940001 0.478219 0.2986ZM33.9375 6.0525C33.9375 6.0752 32.9883 6.0938 31.8281 6.0938H29.7188V3.9475V1.8012L31.8281 3.9062C32.9883 5.064 33.9375 6.0298 33.9375 6.0525ZM3.63212 3.507C3.18772 4.0425 3.80072 4.9478 4.36722 4.5926C4.92472 4.2431 4.72422 3.2813 4.09382 3.2813C3.94292 3.2813 3.73522 3.3828 3.63212 3.507ZM5.46092 3.45C5.09382 3.6638 5.11152 4.3233 5.48972 4.5258C5.90032 4.7455 6.06032 4.7299 6.34822 4.442C6.95892 3.8312 6.22162 3.007 5.46092 3.45ZM10.6875 3.4688C10.1441 4.0121 10.9241 5.0222 11.511 4.5351C11.9771 4.1482 11.7102 3.2813 11.125 3.2813C10.9875 3.2813 10.7906 3.3656 10.6875 3.4688ZM12.598 3.4008C11.9574 3.8395 12.5128 4.8884 13.216 4.568C13.7148 4.3408 13.777 3.6861 13.3228 3.443C12.9679 3.2531 12.8258 3.2448 12.598 3.4008ZM15.0625 3.4688C14.8215 3.7098 14.8215 4.259 15.0625 4.5C15.3061 4.7436 23.1841 4.7672 23.6353 4.5258C23.8068 4.434 23.9375 4.1998 23.9375 3.9844C23.9375 3.769 23.8068 3.5348 23.6353 3.443C23.1841 3.2015 15.3061 3.2252 15.0625 3.4688ZM11.8393 10.4018C11.3975 10.8435 11.4842 15.218 11.941 15.538C12.366 15.8357 30.743 15.9131 31.2915 15.6195C31.756 15.3709 31.756 10.5666 31.2915 10.318C30.738 10.0217 12.1392 10.1019 11.8393 10.4018ZM26.125 12.9688V14.375H19.5625H13V12.9688V11.5625H19.5625H26.125V12.9688ZM30.3438 12.9688V14.375H28.9375H27.5313V12.9688V11.5625H28.9375H30.3438V12.9688ZM11.7824 16.4363C11.4733 16.7455 11.5231 21.157 11.8393 21.4732C12.1876 21.8215 31.1342 21.8499 31.4224 21.5025C31.5451 21.3547 31.5882 20.5027 31.5587 18.8072L31.5156 16.3281L21.7433 16.2879C14.2725 16.2571 11.9266 16.2921 11.7824 16.4363ZM22.5313 18.9063V20.3125H17.7656H13V18.9063V17.5H17.7656H22.5313V18.9063ZM30.3438 18.9063V20.3125H27.1406H23.9375V18.9063V17.5H27.1406H30.3438V18.9063ZM11.7824 22.3738C11.4733 22.683 11.5231 27.0945 11.8393 27.4107C12.2068 27.7783 19.2619 27.7783 19.6295 27.4107C20.5451 26.495 19.8195 26.25 16.192 26.25H13V24.8438V23.4375H20.2656H27.5313V24.8438V26.25H24.5737C21.1974 26.25 20.4725 26.5127 21.3705 27.4107C21.716 27.7562 31.1372 27.7837 31.4224 27.44C31.5451 27.2922 31.5882 26.4402 31.5587 24.7447L31.5156 22.2656L21.7433 22.2254C14.2725 22.1946 11.9266 22.2296 11.7824 22.3738ZM30.3438 24.8438V26.25H29.6406H28.9375V24.8438V23.4375H29.6406H30.3438V24.8438ZM13.516 30.0308C13.0464 30.2577 12.6337 31.1693 12.7636 31.6929C13.1014 33.0546 14.9657 33.3719 15.5855 32.1733C16.308 30.7761 14.9288 29.3482 13.516 30.0308ZM22.5625 30.0313C21.9258 30.6679 22.5452 31.25 23.8594 31.25C24.9094 31.25 25.3438 31.0518 25.3438 30.5726C25.3438 29.9901 25.0456 29.8438 23.8594 29.8438C23.2049 29.8438 22.6731 29.9206 22.5625 30.0313ZM15.5391 32.6921C13.4285 34.8112 13.0865 35.625 14.3064 35.625C14.8895 35.625 18.4908 31.8794 18.4368 31.3291C18.3305 30.2469 17.6608 30.5619 15.5391 32.6921ZM22.5625 32.6875C22.2754 32.9746 22.3394 33.5637 22.6772 33.7445C22.9991 33.9168 29.5309 33.9733 30.1433 33.8091C30.568 33.6952 30.7315 33.2451 30.5032 32.8184C30.2968 32.4328 22.9385 32.3115 22.5625 32.6875ZM16.8272 33.7893C16.555 34.0234 16.3894 34.3558 16.3321 34.7828C16.0759 36.6928 18.984 37.1237 19.3396 35.2284C19.6038 33.8198 17.9158 32.8529 16.8272 33.7893ZM22.4393 34.6087C22.2287 35.4477 22.3798 35.4779 26.5591 35.4324C30.6858 35.3874 31.0289 35.3135 30.5604 34.5703C30.4049 34.3236 30.004 34.2928 26.4633 34.2551L22.5385 34.2134L22.4393 34.6087Z" fill="white"/>
</svg>
