<svg width="37" height="54" viewBox="0 0 37 54" fill="none" xmlns="http://www.w3.org/2000/svg">
<path fill-rule="evenodd" clip-rule="evenodd" d="M8.67488 4.25286C8.29204 4.96336 8.41865 8.84536 8.8415 9.36399C9.16821 9.76474 9.27216 9.79074 9.72636 9.58511L10.2411 9.35224V6.92261C10.2411 5.58636 10.1873 4.35399 10.1218 4.18411C9.94861 3.73611 8.92721 3.78474 8.67488 4.25286ZM6.15095 5.28136C5.8255 5.60461 5.8255 9.95811 6.15095 10.2814C6.5241 10.652 7.25529 10.5572 7.49805 10.1066C7.83873 9.47436 7.66896 5.47449 7.29153 5.23786C6.88655 4.98411 6.43286 5.00136 6.15095 5.28136ZM3.27439 6.33049C2.90124 6.70111 2.80648 15.9106 3.16893 16.5832C3.42126 17.0515 4.44266 17.1001 4.61583 16.6521C4.6814 16.4822 4.73514 14.1594 4.73514 11.4902C4.73514 6.42386 4.67032 6.02361 3.85028 6.02361C3.70341 6.02361 3.44429 6.16161 3.27439 6.33049ZM32.9671 6.33049C32.5153 6.77924 32.5153 11.3226 32.9671 11.7714C33.9685 12.7659 34.428 11.9104 34.428 9.05086C34.428 6.57449 34.2669 6.02361 33.543 6.02361C33.3963 6.02361 33.1372 6.16161 32.9671 6.33049ZM30.0456 6.33986C29.7086 6.67449 29.8993 8.35049 30.2985 8.56261C31.0641 8.96961 31.5066 8.49136 31.4391 7.32974C31.3809 6.33224 30.6069 5.78236 30.0456 6.33986ZM35.5235 8.28361C34.9825 8.82086 35.0745 14.4977 35.6304 14.8845C36.052 15.1777 36.5706 15.1109 36.8338 14.7292C37.0886 14.3596 37.0113 8.47236 36.7483 8.21111C36.4217 7.88661 35.8915 7.91811 35.5235 8.28361ZM8.75026 10.3891C8.39109 11.3187 9.10768 12.3912 9.7986 11.9582C10.4777 11.5329 10.2635 10.2344 9.50235 10.1615C9.07483 10.1205 8.82477 10.1962 8.75026 10.3891ZM30.118 10.5941C29.3279 11.5395 30.1532 15.0494 31.0358 14.498C31.8552 13.9862 31.5533 10.3205 30.6918 10.3205C30.502 10.3205 30.2437 10.4436 30.118 10.5941ZM6.25906 11.7032C5.90768 11.9066 5.76132 13.6019 6.03429 14.3084C6.20746 14.7564 7.22886 14.7077 7.48119 14.2395C8.19262 12.9191 7.31293 11.0936 6.25906 11.7032ZM0.251719 12.508C-0.00488971 12.7629 -0.0675633 14.3901 0.166267 14.7292C0.751848 15.5787 1.78558 14.9481 1.78558 13.7412C1.78558 12.5225 0.9298 11.8344 0.251719 12.508ZM16.5336 12.6615C10.5203 13.2724 5.11546 16.9912 2.38941 22.3936C1.73864 23.6831 1.7297 24.277 2.35782 24.475C2.96014 24.6649 3.23601 24.4245 3.91925 23.114C5.81002 19.4872 11.1049 15.008 13.5012 15.008C13.5682 15.008 13.173 15.5237 12.6231 16.1542C9.79381 19.398 7.29845 24.9747 6.11609 30.6962C5.92039 31.6431 5.82626 31.8095 5.55392 31.6892C5.37395 31.6097 4.52799 31.5055 3.67397 31.4575L2.12123 31.3702L2.2501 28.9761C2.39482 26.2882 2.24657 25.8694 1.30169 26.297C0.712079 26.5639 0.514872 27.5787 0.510467 30.3677C0.506314 33.0405 0.689427 33.265 2.71914 33.0761C4.35557 32.9237 6.1648 33.5166 5.71312 34.0571C5.17196 34.7049 5.56915 36.004 6.30826 36.004C7.04361 36.004 7.43211 34.8852 6.91272 34.2636C6.16832 33.3727 9.60718 32.7329 11.1947 33.4669C12.4915 34.0665 12.5009 34.0665 13.8502 33.4529C14.5707 33.1252 15.207 32.9735 15.6929 33.0134L16.4353 33.0744L16.4879 37.8106L16.5406 42.547L16.0946 42.55C14.9275 42.5579 14.736 43.962 15.887 44.0725L16.5185 44.1331L16.3974 47.3295C16.2771 50.5084 16.2794 50.5316 16.8004 51.5894C18.7116 55.4691 24.7304 54.2481 24.8622 49.954C24.9266 47.8602 22.5978 46.7332 21.1595 48.1619L20.6631 48.655V47.8765C20.6631 47.4484 20.6064 46.4321 20.5371 45.6182L20.4112 44.1384L21.0779 44.0751C22.2565 43.9632 22.1008 42.558 20.9089 42.55C20.4849 42.5471 20.4664 42.4775 20.4664 40.8826C20.4664 39.3022 20.4419 39.2072 19.9806 38.9985C19.0076 38.5581 18.8933 38.9232 18.8933 42.4732C18.8933 45.5417 18.8773 45.672 18.5 45.672C18.1154 45.672 18.1067 45.5417 18.1067 39.8126C18.1067 34.0835 18.1154 33.9532 18.5 33.9532C18.8578 33.9532 18.8933 34.0835 18.8933 35.3941C18.8933 38.4056 20.4188 38.0201 20.5083 34.9861L20.5647 33.0744L21.3071 33.0134C21.793 32.9735 22.4293 33.1252 23.1498 33.4529C24.4992 34.0665 24.5085 34.0665 25.8054 33.4669C27.3928 32.7329 30.8317 33.3727 30.0873 34.2636C29.5679 34.8852 29.9564 36.004 30.6918 36.004C31.4309 36.004 31.8281 34.7049 31.2869 34.0571C30.8352 33.5166 32.6445 32.9237 34.2809 33.0761C36.3739 33.2709 36.5025 33.0879 36.4612 29.9755C36.4101 26.1264 35.3175 22.7227 34.133 22.7227C33.3068 22.7227 33.2916 23.187 34.0418 25.4962C34.505 26.922 34.6907 27.9154 34.7696 29.3904L34.8754 31.3704L33.3244 31.4576C32.4713 31.5055 31.6261 31.6097 31.4461 31.6892C31.1738 31.8095 31.0796 31.6431 30.8839 30.6962C29.6975 24.9554 27.207 19.3989 24.3537 16.1276C23.1826 14.785 23.3121 14.7632 25.6793 15.9055C27.5239 16.7955 29.5893 18.3882 30.79 19.8465C32.1252 21.468 33.2482 21.691 33.2482 20.3346C33.2482 19.6975 29.6613 16.1455 28.0997 15.2364C24.5214 13.1529 20.5028 12.2582 16.5336 12.6615ZM32.8712 14.1094C32.4863 14.57 32.675 17.943 33.1007 18.2089C33.8467 18.675 34.128 18.1531 34.1898 16.1882C34.2579 14.0237 33.6904 13.129 32.8712 14.1094ZM17.7134 23.1086V31.7951L17.209 31.6046C16.3731 31.289 14.162 31.3857 13.2891 31.7762C12.5261 32.1175 12.4766 32.1169 11.6429 31.7516C10.9695 31.4565 10.4479 31.3901 9.23403 31.4449C8.3819 31.4832 7.68482 31.4861 7.68482 31.451C7.68482 29.456 10.6379 21.8967 12.468 19.2071C13.8247 17.2134 16.797 14.422 17.5633 14.422C17.6459 14.422 17.7134 18.331 17.7134 23.1086ZM20.4684 15.0092C23.3539 16.8482 26.2354 21.2377 27.9042 26.3361C28.397 27.8419 29.3153 31.1685 29.3153 31.4481C29.3153 31.4847 28.6181 31.4832 27.766 31.4449C26.5522 31.3901 26.0305 31.4565 25.3571 31.7516C24.5235 32.1169 24.4739 32.1175 23.711 31.7762C22.8381 31.3857 20.6269 31.289 19.791 31.6046L19.2866 31.7951V23.1086C19.2866 18.331 19.3452 14.422 19.4168 14.422C19.4884 14.422 19.9618 14.6862 20.4684 15.0092ZM0.251719 16.6095C-0.0684441 16.9275 -0.0684441 20.315 0.251719 20.6329C1.13041 21.5056 1.78558 20.6462 1.78558 18.6212C1.78558 16.5961 1.13041 15.7367 0.251719 16.6095ZM35.4181 16.7529C34.8078 17.8854 35.2781 20.8674 36.0669 20.8674C36.8385 20.8674 36.9843 20.5105 36.9843 18.6212C36.9843 17.4992 36.8973 16.7575 36.7483 16.6095C36.387 16.2506 35.6456 16.3306 35.4181 16.7529ZM5.75679 38.2224C5.58098 38.3331 5.51906 38.747 5.56008 39.5377L5.61999 40.6915H6.30826H6.99654L7.05644 39.6502C7.13598 38.2704 6.60552 37.6876 5.75679 38.2224ZM30.1151 38.3319C29.9817 38.4915 29.909 39.0505 29.9436 39.6502L30.0035 40.6915H30.6918H31.38L31.4399 39.5377C31.5012 38.3562 31.3487 38.0641 30.6667 38.0577C30.4906 38.0561 30.2425 38.1795 30.1151 38.3319ZM5.94846 42.7176C5.79983 42.8112 5.71488 43.1264 5.75175 43.4471C5.84803 44.2851 8.18243 44.445 8.38895 43.6279C8.61988 42.7135 6.94633 42.0894 5.94846 42.7176ZM10.6678 42.7176C10.5192 42.8112 10.4343 43.1264 10.4711 43.4471C10.5674 44.2851 12.9018 44.445 13.1083 43.6279C13.3393 42.7135 11.6657 42.0894 10.6678 42.7176ZM24.0081 42.8374C23.8669 43.0064 23.8182 43.337 23.8917 43.6279C24.0982 44.445 26.4326 44.2851 26.5289 43.4471C26.6301 42.5666 24.6371 42.0846 24.0081 42.8374ZM28.7275 42.8374C28.5863 43.0064 28.5376 43.337 28.6111 43.6279C28.8176 44.445 31.152 44.2851 31.2483 43.4471C31.3495 42.5666 29.3565 42.0846 28.7275 42.8374ZM19.09 48.873C19.09 51.5417 21.5608 52.3467 22.2025 49.8871C22.4491 48.942 23.1285 49.0499 23.0976 50.0292C23.0363 51.9742 20.49 52.9335 18.9049 51.6087C17.7449 50.6392 17.4339 47.4299 18.5 47.4299H19.09V48.873Z" fill="white"/>
<path d="M15.2599 6.23899C14.837 5.72036 14.7104 1.83836 15.0932 1.12786C15.3456 0.659739 16.367 0.611114 16.5401 1.05911C16.6057 1.22899 16.6595 2.46136 16.6595 3.79761V6.22724L16.1447 6.46011C15.6905 6.66574 15.5866 6.63974 15.2599 6.23899Z" fill="white"/>
<path d="M12.0659 6.53136C11.7405 6.20811 11.7405 1.85461 12.0659 1.53136C12.3478 1.25136 12.8015 1.23411 13.2065 1.48786C13.5839 1.72449 13.7537 5.72436 13.413 6.35661C13.1703 6.80724 12.4391 6.90199 12.0659 6.53136Z" fill="white"/>
<path d="M16.217 8.83324C15.526 9.26624 14.8095 8.19374 15.1686 7.26411C15.2431 7.07124 15.4932 6.99549 15.9207 7.03649C16.6819 7.10936 16.896 8.40786 16.217 8.83324Z" fill="white"/>
<path d="M11.9493 10.5584C11.6763 9.85186 11.8226 8.15661 12.174 7.95324C13.2279 7.34361 14.1076 9.16912 13.3962 10.4895C13.1438 10.9577 12.1224 11.0064 11.9493 10.5584Z" fill="white"/>
<path d="M18.9719 4.81261C18.5728 4.60048 18.3821 2.92448 18.7191 2.58986C19.2804 2.03236 20.0544 2.58223 20.1125 3.57973C20.1801 4.74136 19.7376 5.21961 18.9719 4.81261Z" fill="white"/>
<path d="M19.7093 10.748C18.8267 11.2994 18.0014 7.78948 18.7915 6.84411C18.9172 6.69361 19.1754 6.57048 19.3652 6.57048C20.2268 6.57048 20.5287 10.2362 19.7093 10.748Z" fill="white"/>
<path d="M26.4605 7.86399C26.0377 7.34536 25.9111 3.46336 26.2939 2.75286C26.5463 2.28474 27.5677 2.23611 27.7408 2.68411C27.8064 2.85399 27.8601 4.08636 27.8601 5.42261V7.85224L27.3454 8.08511C26.8912 8.29074 26.7873 8.26474 26.4605 7.86399Z" fill="white"/>
<path d="M22.5115 7.78136C22.186 7.45811 22.186 3.10461 22.5115 2.78136C22.7934 2.50136 23.2471 2.48411 23.6521 2.73786C24.0295 2.97449 24.1993 6.97436 23.8586 7.60661C23.6158 8.05724 22.8846 8.15199 22.5115 7.78136Z" fill="white"/>
<path d="M27.4176 10.4582C26.7267 10.8912 26.0101 9.81874 26.3693 8.88911C26.4438 8.69624 26.6939 8.62049 27.1214 8.66149C27.8825 8.73436 28.0967 10.0329 27.4176 10.4582Z" fill="white"/>
<path d="M22.3948 11.8084C22.1219 11.1019 22.2682 9.40661 22.6196 9.20324C23.6735 8.59361 24.5532 10.4191 23.8417 11.7395C23.5894 12.2077 22.568 12.2564 22.3948 11.8084Z" fill="white"/>
</svg>
