<svg width="38" height="41" viewBox="0 0 38 41" fill="none" xmlns="http://www.w3.org/2000/svg">
<path fill-rule="evenodd" clip-rule="evenodd" d="M8.95493 1.61373L8.29693 2.22743L8.25263 8.31673L8.20833 14.406L7.15893 14.6434C3.86633 15.388 3.21883 16.0109 3.21883 18.433V20.0151L2.58613 20.3004C1.14273 20.9513 0.790934 21.8426 0.900534 24.5708C0.974134 26.4036 1.14353 26.7337 2.36373 27.4224L3.21883 27.9049V30.1319V32.3589L2.58613 32.6442C1.14403 33.2945 0.790934 34.187 0.900134 36.9058C0.974934 38.7667 1.21963 39.195 2.60333 39.8865C4.63273 40.9006 8.40863 41.3049 8.50013 40.518C8.56713 39.9411 8.31413 39.8077 6.76933 39.6049C3.68783 39.2004 2.38433 38.5259 2.31273 37.299L2.26603 36.499L3.17203 36.8635C6.25823 38.105 12.5231 38.105 15.6092 36.8635L16.5153 36.499L16.4686 37.299C16.3956 38.5497 15.0136 39.2409 11.8303 39.619C10.1474 39.8188 9.90123 39.9377 9.96873 40.518C10.0154 40.9201 10.022 40.9219 11.4219 40.9093C14.8109 40.8789 17.4682 39.7 17.8211 38.0704L17.9311 37.5626H26.6456H35.36L35.8766 37.211C37.0289 36.4268 37.0411 36.3785 37.0989 32.3794C37.1554 28.4738 37.1208 28.1237 36.6544 27.8741C35.7856 27.4091 35.7188 27.6892 35.7188 31.7939V35.5456L35.3352 35.9291L34.9517 36.3126H26.429H17.9063V35.629C17.9063 35.253 17.865 34.7391 17.8146 34.487C17.731 34.0692 17.7795 34.003 18.3623 33.7402C18.714 33.5816 19.0803 33.3572 19.1763 33.2416C19.2869 33.1083 19.6928 33.0313 20.2848 33.0314C21.1386 33.0314 21.2643 32.9858 21.75 32.5001C22.841 31.4091 22.1762 29.6062 20.6797 29.5973C19.7156 29.5916 19.7844 28.5827 20.7578 28.4522C22.4019 28.2317 22.8702 26.0868 21.4648 25.2135C20.9303 24.8813 18.8217 24.8241 18.1797 25.1244C17.9362 25.2383 17.9063 25.1542 17.9063 24.3571C17.9063 23.5752 17.9362 23.4867 18.1429 23.6582C18.4859 23.9429 20.4045 24.0452 21.0994 23.8159C22.8651 23.2332 22.497 20.3751 20.6562 20.3751H20.0938V19.2814V18.1876H20.6562C22.5684 18.1876 22.8614 15.2445 20.9993 14.7406C20.2145 14.5283 18.4746 14.6292 18.1405 14.9064C17.9554 15.0601 17.651 15.0327 16.6186 14.7695C15.0602 14.3721 12.075 14.1082 10.5682 14.2345L9.46883 14.3267V8.67193V3.01713L9.85233 2.63363C10.2304 2.25553 10.2747 2.25013 12.9806 2.25013H15.7254L15.9013 1.86413C16.2631 1.07013 15.9993 1.00013 12.6467 1.00013H9.61293L8.95493 1.61373ZM17.4337 1.23913C17.282 1.42193 17.2767 1.56903 17.4112 1.86413L17.5871 2.25013H26.2694H34.9517L35.3352 2.63363L35.7188 3.01713V14.5676C35.7188 27.1354 35.6824 26.6295 36.5693 26.4069C37.1453 26.2623 37.144 26.2928 37.0934 13.9689C37.0414 1.30553 37.1075 2.02813 35.9347 1.30183C35.2607 0.884429 17.7772 0.825129 17.4337 1.23913ZM11.7455 5.30813C11.3797 5.67403 11.3797 11.6387 11.7455 12.0046C12.0457 12.3047 32.8306 12.3852 33.3853 12.0884C33.8043 11.8641 33.8557 5.72193 33.442 5.30813C33.0681 4.93433 12.1194 4.93433 11.7455 5.30813ZM32.2813 8.65643V10.8439H22.5938H12.9063V8.65643V6.46893H22.5938H32.2813V8.65643ZM5.90633 8.84393C5.37593 9.37423 5.99963 10.2578 6.65633 9.90643C7.20783 9.61123 6.96903 8.65643 6.34383 8.65643C6.20633 8.65643 6.00943 8.74073 5.90633 8.84393ZM3.84543 10.9199C3.25613 11.63 3.75493 11.9517 5.37163 11.9041C6.97873 11.8569 7.36623 11.5891 6.80543 10.9134C6.53623 10.5891 4.11563 10.5944 3.84543 10.9199ZM3.88043 12.7447C3.23493 13.3902 3.81233 13.8126 5.34023 13.8126C6.72653 13.8126 7.03463 13.6564 6.94173 13.0009C6.88113 12.5737 4.26993 12.3552 3.88043 12.7447ZM24.2082 14.7024C23.3524 14.8693 22.7856 15.8549 22.9725 16.8511C23.3676 18.9573 27.9077 18.6559 27.9057 16.5235C27.9042 14.9916 26.4354 14.2682 24.2082 14.7024ZM29.8332 14.7024C28.9774 14.8693 28.4106 15.8549 28.5975 16.8511C28.9926 18.9573 33.5327 18.6559 33.5307 16.5235C33.5292 14.9916 32.0604 14.2682 29.8332 14.7024ZM15.9014 15.9763C18.0188 16.5366 18.9523 17.1672 18.4635 17.7073C16.6897 19.6674 7.16953 19.7326 4.85943 17.8005L4.39063 17.4085L4.81263 17.0309C6.34333 15.6613 12.4988 15.0759 15.9014 15.9763ZM20.8613 16.2179C21.0008 16.3861 20.9848 16.4929 20.7911 16.6867C20.4125 17.0653 20.0455 16.9882 19.7495 16.4679L19.4833 16.0001H20.0819C20.4111 16.0001 20.7618 16.0981 20.8613 16.2179ZM26.4863 16.2179C26.9083 16.7264 25.4711 17.1925 24.5597 16.8428C24.3106 16.7472 24.2235 16.2974 24.4167 16.1043C24.6199 15.901 26.2998 15.9933 26.4863 16.2179ZM32.1113 16.2179C32.5333 16.7264 31.0961 17.1925 30.1847 16.8428C29.9356 16.7472 29.8485 16.2974 30.0417 16.1043C30.2449 15.901 31.9248 15.9933 32.1113 16.2179ZM5.81963 19.7704C8.79133 20.8235 14.6525 20.7848 17.6623 19.6923L18.6875 19.3201V20.0578C18.6875 20.5676 18.6013 20.8734 18.4084 21.048C16.336 22.9235 7.51483 22.9916 4.93153 21.152C4.36713 20.7502 4.19523 19.1291 4.74223 19.3667C4.89263 19.4321 5.37743 19.6137 5.81963 19.7704ZM23.5283 20.8048C21.6938 22.4585 24.0659 24.6933 26.7244 23.8159C27.9575 23.4089 28.3084 21.8397 27.375 20.9064C26.622 20.1534 24.3183 20.0926 23.5283 20.8048ZM29.1491 20.8048C28.2082 21.6455 28.4067 23.1829 29.5245 23.7134C32.0069 24.8914 34.7608 22.6671 33 20.9064C32.2471 20.1535 29.9459 20.0928 29.1491 20.8048ZM4.89543 22.7037C6.09193 23.3027 7.99523 23.6675 10.4844 23.7749C13.2924 23.896 12.6386 24.0951 9.37203 24.1135C4.90133 24.1388 1.11463 22.7988 2.78543 21.7827L3.28953 21.4761L3.76193 21.9244C4.02183 22.1709 4.53193 22.5216 4.89543 22.7037ZM20.7911 21.876C21.2188 22.3038 20.8171 22.5626 19.7254 22.5626H18.7703L19.2367 22.1107C19.7635 21.6003 20.4168 21.5017 20.7911 21.876ZM26.4161 21.876C26.8634 22.3233 26.4377 22.5832 25.344 22.5303C24.3714 22.4834 23.9522 22.1058 24.4924 21.7634C24.8618 21.5294 26.1445 21.6045 26.4161 21.876ZM32.0411 21.876C32.4884 22.3233 32.0627 22.5832 30.969 22.5303C29.9964 22.4834 29.5772 22.1058 30.1174 21.7634C30.4868 21.5294 31.7695 21.6045 32.0411 21.876ZM5.25003 25.1198C8.69273 25.818 13.9314 25.4454 16.0458 24.3519L16.5 24.1171V24.8751C16.5 26.4988 13.9263 27.4064 9.32173 27.4064C4.97433 27.4064 2.28133 26.454 2.28133 24.9166V24.1614L3.17973 24.5218C3.67383 24.72 4.60553 24.9891 5.25003 25.1198ZM23.8929 25.135C22.6243 25.6868 22.6089 27.6271 23.8679 28.2782C24.7902 28.7551 26.8885 28.5404 27.4503 27.9117C29.0604 26.1097 26.4095 24.0405 23.8929 25.135ZM29.4317 25.1509C28.2389 25.7981 28.2751 27.6485 29.4929 28.2782C31.5389 29.3363 34.1055 27.8111 33.3922 25.9611C33.0188 24.9928 30.6254 24.5032 29.4317 25.1509ZM20.8469 26.5132C21.3536 27.1237 19.9249 27.4812 19.1799 26.9304C18.9158 26.7351 18.7363 26.5163 18.781 26.444C18.9131 26.2302 20.6606 26.2887 20.8469 26.5132ZM26.4565 26.4879C26.9274 26.9587 25.9448 27.3859 24.8594 27.1823C24.3385 27.0846 24.1224 26.711 24.4167 26.4168C24.5912 26.2422 26.2694 26.3007 26.4565 26.4879ZM32.0815 26.4879C32.5524 26.9587 31.5698 27.3859 30.4844 27.1823C29.9635 27.0846 29.7474 26.711 30.0417 26.4168C30.2162 26.2422 31.8944 26.3007 32.0815 26.4879ZM17.4636 27.5424C19.0165 28.2127 18.9638 28.8227 17.2991 29.4481C14.1193 30.6427 8.49893 30.5822 5.67193 29.3229C4.44933 28.7782 4.13423 28.2545 5.11503 28.3971C10.0931 29.121 13.7497 28.7649 16.7605 27.2631C16.7748 27.256 17.0912 27.3816 17.4636 27.5424ZM23.3737 30.1661C22.9251 30.677 22.8799 30.8145 22.9515 31.45C23.2094 33.738 27.9063 33.6868 27.9063 31.3961C27.9063 30.0118 27.3313 29.6018 25.3834 29.5973L23.8761 29.5939L23.3737 30.1661ZM28.9987 30.1661C28.5501 30.677 28.5049 30.8145 28.5765 31.45C28.8344 33.738 33.5313 33.6868 33.5313 31.3961C33.5313 30.0118 32.9563 29.6018 31.0084 29.5973L29.5011 29.5939L28.9987 30.1661ZM6.10943 30.9249C9.30793 31.9605 15.7792 31.7902 18.0607 30.6104C18.6902 30.2849 18.6875 30.2825 18.6875 31.1457C18.6875 32.0453 18.3526 32.3721 16.9292 32.8618C13.2336 34.1333 5.48383 33.5424 4.61723 31.923C4.33713 31.3996 4.42873 30.3249 4.74223 30.4562C4.89263 30.5193 5.50783 30.7302 6.10943 30.9249ZM20.8364 31.024C21.0867 31.2743 20.7951 31.7814 20.4008 31.7814C20.1638 31.7814 20.0938 31.6744 20.0938 31.3126C20.0938 30.813 20.4767 30.6643 20.8364 31.024ZM26.4219 31.3126C26.4219 31.6827 26.3705 31.7057 25.4433 31.7498C24.4217 31.7984 24.157 31.6306 24.3719 31.0707C24.551 30.604 26.4219 30.8248 26.4219 31.3126ZM32.0469 31.3126C32.0469 31.6827 31.9955 31.7057 31.0683 31.7498C30.0467 31.7984 29.782 31.6306 29.9969 31.0707C30.176 30.604 32.0469 30.8248 32.0469 31.3126ZM5.63163 34.0426C7.80313 34.8667 11.8509 35.1447 14.9352 34.6816C16.6462 34.4247 16.7675 34.4656 16.0582 35.0603C13.7961 36.957 4.86333 36.9091 2.63023 34.9883C2.12923 34.5573 2.25333 34.3295 3.26733 33.8185C3.99713 33.4507 4.09693 33.4601 5.63163 34.0426Z" fill="white"/>
</svg>
