<svg width="40" height="41" viewBox="0 0 40 41" fill="none" xmlns="http://www.w3.org/2000/svg">
<path fill-rule="evenodd" clip-rule="evenodd" d="M19.6874 0.3125C19.4009 0.599 19.3749 0.8333 19.3749 3.125C19.3749 5.4665 19.3563 5.625 19.0815 5.625C18.3348 5.625 18.25 6.7549 18.9829 6.9388L19.3749 7.0372V9.2026C19.3749 11.6191 19.4878 11.931 20.2389 11.5888L20.6249 11.4129V6.3315V1.25H27.0312H33.4374V3.4076C33.4374 6.3072 33.2977 6.1584 36.0807 6.2227L38.2812 6.2736V16.0274V25.7813H29.453H20.6249V19.5279V13.2746L20.2389 13.0987C19.4981 12.7611 19.3749 13.0795 19.3749 15.3316V17.3438H15.5468C12.3994 17.3438 11.7187 17.3055 11.7187 17.1285C11.7187 16.7739 11.285 16.5198 10.8613 16.6262C10.6072 16.6899 10.4687 16.834 10.4687 17.0342C10.4687 17.3321 10.3523 17.344 7.38274 17.3506C1.59364 17.3635 1.88304 16.8238 1.87834 27.6172L1.87494 35.625H1.25544C-0.0493563 35.625 -0.109556 38.6517 1.17524 39.6622L1.60704 40.002L13.3425 39.9619L25.078 39.9219L25.1291 39.5617C25.2488 38.7172 25.7163 38.75 13.5642 38.75C1.03574 38.75 1.71864 38.8134 1.71864 37.6508L1.71874 36.875H7.26234H12.806L13.1166 37.4837C13.7111 38.6491 13.4614 38.5938 18.1247 38.5938L22.321 38.5937L22.6057 38.2185C22.7624 38.0121 23.0103 37.6254 23.1567 37.3591L23.4229 36.875H28.977H34.5312L34.5311 37.5539C34.5311 38.7351 34.4802 38.75 30.4364 38.75C26.6452 38.75 26.4794 38.785 26.5895 39.5617L26.6405 39.9219L30.5911 39.9636C35.6721 40.0173 35.7795 39.9611 35.7806 37.2433C35.7812 35.6898 35.7432 35.625 34.8309 35.625H34.3749V31.3281V27.0313H36.6232C38.6039 27.0313 38.9154 26.9957 39.2404 26.7326L39.6093 26.434L39.6515 15.6143L39.6937 4.7947L37.3143 2.3974L34.9349 0H27.4674C20.2082 0 19.9912 0.00869999 19.6874 0.3125ZM36.328 3.2813L37.8847 4.8438H36.286H34.6874V3.2813C34.6874 2.4219 34.7063 1.7188 34.7294 1.7188C34.7525 1.7188 35.4719 2.4219 36.328 3.2813ZM23.0579 3.683C22.6439 4.0971 22.9382 4.8438 23.5155 4.8438C23.7891 4.8438 24.2187 4.4142 24.2187 4.1406C24.2187 3.867 23.7891 3.4375 23.5155 3.4375C23.3989 3.4375 23.193 3.548 23.0579 3.683ZM25.2733 3.6063C24.9595 3.7891 24.9111 4.3799 25.1874 4.6563C25.4514 4.9203 30.9546 4.9203 31.2187 4.6563C31.5057 4.3692 31.4418 3.78 31.1039 3.5992C30.7091 3.388 25.6377 3.3941 25.2733 3.6063ZM10.6562 5.8125C10.1213 6.3474 10.612 7.6285 11.2501 7.3632C12.4378 6.8693 12.4935 5.625 11.328 5.625C11.0616 5.625 10.7593 5.7094 10.6562 5.8125ZM14.3079 5.8705C13.608 6.5705 14.7709 7.2767 16.0563 6.9323C16.4748 6.8202 16.6794 6.1886 16.4045 5.8573C16.1354 5.5332 14.6359 5.5426 14.3079 5.8705ZM24.076 9.3032C23.7132 9.6309 23.4227 9.7901 23.3632 9.6938C23.1061 9.2779 22.1874 9.688 22.1874 10.2187C22.1874 10.537 23.212 11.4063 23.5872 11.4063C24.0552 11.4063 25.6249 9.9175 25.6249 9.4736C25.6249 8.6743 24.8647 8.5907 24.076 9.3032ZM10.6354 9.1279C10.3525 9.4688 10.4872 10.946 10.8202 11.155C11.3073 11.4606 11.6344 11.0881 11.6882 10.1665C11.7531 9.0549 11.1719 8.4815 10.6354 9.1279ZM26.7203 10.3886C26.608 10.5239 26.5695 10.7882 26.6281 11.0216C26.7729 11.5985 28.3276 11.5517 28.4103 10.968C28.5141 10.236 27.2163 9.791 26.7203 10.3886ZM29.0624 10.4688C28.601 11.331 28.9244 11.4166 32.468 11.3703L35.703 11.3281L35.7546 10.8763C35.8319 10.199 35.6509 10.1612 32.3101 10.1586C29.3883 10.1564 29.221 10.1723 29.0624 10.4688ZM10.5802 12.9093C10.2466 13.2429 10.4677 14.8376 10.8613 14.9363C11.5054 15.098 11.7395 14.7654 11.6866 13.7641C11.6412 12.9037 11.0458 12.4437 10.5802 12.9093ZM24.1396 14.0635C23.8075 14.4101 23.6054 14.5054 23.3682 14.4273C22.23 14.0524 21.845 14.7554 22.6723 15.6977C23.3598 16.4807 23.6965 16.4199 24.7417 15.3241C25.7065 14.3127 25.6966 14.3322 25.4632 13.896C25.2267 13.4541 24.654 13.5265 24.1396 14.0635ZM26.6269 15.3894C26.4259 16.1902 26.6494 16.2502 29.8237 16.2476C32.9894 16.245 33.1753 16.2042 33.0983 15.5299L33.0468 15.0781L29.8865 15.0358L26.7262 14.9936L26.6269 15.3894ZM33.8155 15.385C33.6712 15.96 33.9844 16.2504 34.7456 16.2476C35.5905 16.2445 35.8177 16.0828 35.7546 15.5299C35.6783 14.8614 33.9788 14.7344 33.8155 15.385ZM24.076 18.8344C23.7132 19.1622 23.4227 19.3214 23.3632 19.2251C23.1903 18.9453 22.5209 19.0437 22.3437 19.375C22.0462 19.9308 23.1036 21.1518 23.7386 20.9857C24.1312 20.8831 25.6249 19.3145 25.6249 19.0049C25.6249 18.2056 24.8647 18.1219 24.076 18.8344ZM19.3749 19.0625C19.3749 19.3707 19.2707 19.375 11.828 19.375C6.16664 19.375 4.23434 19.4218 4.09364 19.5625C3.79984 19.8564 3.83404 24.4331 4.13194 24.6804C4.87474 25.2968 5.07534 24.8945 5.12164 22.6953L5.16524 20.625H12.2701H19.3749V23.4665C19.3749 26.1689 19.3915 26.3257 19.7146 26.6696L20.0544 27.0313H25.4959H30.9374V31.3281V35.625H18.0491H5.16084L5.11944 30.9766L5.07804 26.3281L4.71794 26.2771C3.92124 26.1641 3.90624 26.2538 3.90624 31.1129C3.90624 35.5208 3.89894 35.625 3.59374 35.625C3.28524 35.625 3.28124 35.5208 3.28124 27.592V19.559L3.76194 19.1545L4.24264 18.75H11.8088C19.2707 18.75 19.3749 18.7543 19.3749 19.0625ZM26.7499 19.875C26.4628 20.1621 26.5268 20.7512 26.8646 20.932C27.2723 21.1502 35.0712 21.1502 35.4789 20.932C35.8168 20.7512 35.8807 20.1621 35.5937 19.875C35.3264 19.6077 27.0172 19.6077 26.7499 19.875ZM7.50704 22.5695C7.40404 22.6937 7.34264 22.9574 7.37074 23.1555L7.42184 23.5156L12.1273 23.5569C17.3041 23.6024 17.4444 23.5789 17.0575 22.7297L16.8816 22.3438H12.288C8.47324 22.3438 7.66264 22.382 7.50704 22.5695ZM7.40664 24.5925C7.09194 25.4127 7.32244 25.5469 9.04544 25.5469C10.8095 25.5469 11.2356 25.3523 10.8419 24.7266C10.6046 24.3494 7.54574 24.2301 7.40664 24.5925ZM11.7536 24.5588C11.4995 24.8129 11.5112 25.2317 11.7786 25.4537C12.1632 25.7729 16.8778 25.6129 17.0917 25.2734C17.2172 25.0742 17.2172 24.9258 17.0917 24.7266C16.8715 24.3772 12.0856 24.2268 11.7536 24.5588ZM7.61714 26.4188C7.30324 26.6016 7.25484 27.1924 7.53124 27.4688C7.66854 27.6061 8.94514 27.6563 12.3001 27.6563H16.8816L17.0679 27.2473C17.2324 26.8863 17.2116 26.8038 16.891 26.5441C16.4726 26.2053 8.17614 26.0932 7.61714 26.4188ZM32.9687 31.3281C32.9687 35.5208 32.9611 35.625 32.6562 35.625C32.3512 35.625 32.3437 35.5208 32.3437 31.3281C32.3437 27.1354 32.3512 27.0313 32.6562 27.0313C32.9611 27.0313 32.9687 27.1354 32.9687 31.3281ZM7.53124 28.625C7.01154 29.1447 7.44174 29.8438 8.28124 29.8438C8.91904 29.8438 9.21874 29.619 9.21874 29.1406C9.21874 28.6623 8.91904 28.4375 8.28124 28.4375C7.97184 28.4375 7.63434 28.5219 7.53124 28.625ZM9.77674 28.683C8.85094 29.6089 9.57584 29.8438 13.3593 29.8438C16.8307 29.8438 17.1874 29.7782 17.1874 29.1406C17.1874 28.503 16.8307 28.4375 13.3593 28.4375C10.5339 28.4375 9.98464 28.4752 9.77674 28.683ZM19.5624 28.625C19.3214 28.866 19.3214 29.4152 19.5624 29.6563C19.8715 29.9654 24.5947 29.9141 24.9106 29.5982C25.7647 28.7441 25.0508 28.4375 22.2075 28.4375C20.5044 28.4375 19.6923 28.4951 19.5624 28.625ZM25.8704 28.683C25.1689 29.3845 25.7827 29.8438 27.4218 29.8438C28.75 29.8438 29.2187 29.6604 29.2187 29.1406C29.2187 28.6209 28.75 28.4375 27.4218 28.4375C26.443 28.4375 26.0545 28.499 25.8704 28.683ZM7.50704 30.6945C7.40404 30.8187 7.34264 31.0824 7.37074 31.2805L7.42184 31.6406L10.5641 31.6829C14.0428 31.7296 14.302 31.6659 13.9325 30.8547L13.7566 30.4688H10.7255C8.27314 30.4688 7.65864 30.5119 7.50704 30.6945ZM14.8508 30.6945C14.3638 31.2813 14.7035 31.6379 15.7956 31.6863C17.0105 31.7401 17.3569 31.5119 17.0575 30.8547C16.8461 30.3909 15.2018 30.2715 14.8508 30.6945ZM19.5383 30.6945C18.9703 31.3789 19.361 31.638 21.0311 31.6849C22.8263 31.7353 23.1683 31.5782 22.8387 30.8547C22.6236 30.3827 19.9065 30.2508 19.5383 30.6945ZM23.6008 30.6945C22.9421 31.4882 23.3336 31.6377 26.1887 31.6833C29.16 31.7307 29.4501 31.6478 29.0887 30.8547L28.9128 30.4688H26.3505C24.3069 30.4688 23.7502 30.5145 23.6008 30.6945ZM7.40544 32.7207C7.35784 32.8446 7.34214 33.1093 7.37044 33.3089L7.42184 33.6719H12.1704C17.3016 33.6719 17.5795 33.6255 17.0915 32.8516C16.8514 32.4708 7.54954 32.3451 7.40544 32.7207ZM19.4366 32.7207C19.3891 32.8446 19.3733 33.1093 19.4016 33.3089L19.453 33.6719H24.2016C29.3328 33.6719 29.6108 33.6255 29.1228 32.8516C28.8827 32.4708 19.5808 32.3451 19.4366 32.7207ZM21.7968 37.0313C21.7369 37.1281 20.3399 37.1875 18.1249 37.1875C15.9099 37.1875 14.5129 37.1281 14.453 37.0313C14.3897 36.9287 15.6524 36.875 18.1249 36.875C20.5974 36.875 21.8601 36.9287 21.7968 37.0313ZM29.2452 37.324C29.1272 37.3989 29.0597 37.651 29.089 37.9076C29.1591 38.522 30.1999 38.6017 30.2853 37.9992C30.376 37.3597 29.7895 36.979 29.2452 37.324ZM30.7883 37.4133C30.4103 37.8687 30.6497 38.3594 31.2499 38.3594C31.7369 38.3594 31.8024 38.3099 31.8483 37.9076C31.9238 37.2465 31.2049 36.9113 30.7883 37.4133Z" fill="white"/>
</svg>
