<svg width="14" height="14" viewBox="0 0 14 14" fill="none" xmlns="http://www.w3.org/2000/svg">
<path d="M13.266 10.1293C12.8959 9.75065 11.2941 8.47734 10.8966 8.394C10.4545 8.30067 10.1044 8.504 9.795 8.682C9.47691 8.86533 9.20284 9.02399 8.85741 8.89866C7.08692 8.17601 5.82257 6.91203 5.10237 5.14872C4.975 4.79806 5.13305 4.52273 5.31643 4.20474C5.49448 3.89608 5.6952 3.54542 5.60384 3.10342C5.52115 2.7061 4.24813 1.10479 3.8687 0.734794C3.61796 0.490798 3.36189 0.356133 3.09982 0.334134C2.11088 0.292801 0.889208 1.71678 0.695154 2.02944C0.209687 2.6981 0.213021 3.58541 0.703823 4.66273C1.88548 7.55602 6.40273 12.0733 9.3302 13.2906C9.86969 13.5413 10.3638 13.6666 10.8073 13.6666C11.2421 13.6666 11.6282 13.5459 11.9603 13.3073C12.2103 13.1646 13.7021 11.8993 13.6661 10.892C13.6447 10.6346 13.51 10.3786 13.266 10.1293Z" fill="#26282E" fill-opacity="0.33"/>
</svg>
