<svg width="16" height="16" viewBox="0 0 16 16" fill="none" xmlns="http://www.w3.org/2000/svg">
<path d="M12.4389 9.74C12.2446 9.92825 12.1554 10.2005 12.1996 10.4675L12.8664 14.1575C12.9226 14.4702 12.7906 14.7867 12.5289 14.9675C12.2724 15.155 11.9311 15.1775 11.6514 15.0275L8.3296 13.295C8.2141 13.2335 8.08585 13.2005 7.9546 13.1967H7.75135C7.68085 13.2072 7.61185 13.2297 7.54885 13.2642L4.22635 15.005C4.0621 15.0875 3.8761 15.1167 3.69385 15.0875C3.24985 15.0035 2.9536 14.5805 3.02635 14.1342L3.69385 10.4442C3.7381 10.175 3.64885 9.90125 3.4546 9.71L0.746352 7.085C0.519852 6.86525 0.441102 6.53525 0.544602 6.2375C0.645102 5.9405 0.901602 5.72375 1.21135 5.675L4.93885 5.13425C5.22235 5.105 5.47135 4.9325 5.59885 4.6775L7.24135 1.31C7.28035 1.235 7.3306 1.166 7.39135 1.1075L7.45885 1.055C7.4941 1.016 7.5346 0.98375 7.5796 0.9575L7.66135 0.9275L7.78885 0.875H8.1046C8.3866 0.90425 8.63485 1.073 8.7646 1.325L10.4289 4.6775C10.5489 4.92275 10.7821 5.093 11.0514 5.13425L14.7789 5.675C15.0939 5.72 15.3571 5.9375 15.4614 6.2375C15.5596 6.53825 15.4749 6.86825 15.2439 7.085L12.4389 9.74Z" fill="#FFD213"/>
</svg>
