<svg width="168" height="31" viewBox="0 0 168 31" fill="none" xmlns="http://www.w3.org/2000/svg">
<path fill-rule="evenodd" clip-rule="evenodd" d="M50.0935 4.68039C50.0597 4.77271 48.4373 9.31954 46.4885 14.785C44.5396 20.2504 42.9172 24.7502 42.883 24.7838C42.8492 24.818 42.3598 24.9426 41.7954 25.0613L40.7693 25.2764L40.7304 26.2259L40.692 27.1754H44.8355H48.9785V26.2725C48.9785 25.2275 49.073 25.3004 47.4325 25.077C46.7357 24.9823 46.2195 24.8503 46.2181 24.7668C46.2167 24.6869 46.4973 23.7812 46.8413 22.7537L47.4663 20.8856L51.2723 20.9202L55.0783 20.9553L55.7191 22.8303C56.0714 23.8616 56.3321 24.7331 56.2978 24.7672C56.264 24.8009 55.682 24.9339 55.0046 25.0622L53.773 25.2962L53.7341 26.2356L53.6957 27.1754H58.6272H63.5583V26.2638V25.3521L63.0661 25.2242C62.7953 25.1536 62.3369 25.0553 62.048 25.0059C61.7591 24.956 61.4363 24.8697 61.3308 24.8134C61.2252 24.7575 59.4158 20.183 57.3095 14.6488L53.4804 4.58622L51.8177 4.54929C50.5602 4.5216 50.1402 4.55345 50.0935 4.68039ZM66.1855 5.55929C66.1855 6.59375 66.0368 6.4765 67.7944 6.83056L68.9441 7.06228V15.927V24.7917L67.9917 25.0008C67.468 25.1153 66.8471 25.2464 66.6124 25.2921L66.1855 25.3747V26.2748V27.1754H71.1114H76.037V26.2587C76.037 25.612 75.9883 25.3424 75.8726 25.3429C75.7823 25.3433 75.1619 25.2182 74.4933 25.065L73.2783 24.7857V15.915V7.04428L74.428 6.82271C76.1786 6.48435 76.037 6.5956 76.037 5.55929V4.65131H71.1114H66.1855V5.55929ZM78.6641 5.61515V6.57852L79.7415 6.79409C80.3342 6.91226 80.8611 7.05351 80.9125 7.10706C80.9643 7.16107 82.6914 11.6834 84.7504 17.1576C86.8099 22.6314 88.536 27.2147 88.586 27.343C88.6679 27.5512 88.8416 27.5724 90.1908 27.5396L91.7039 27.5027L95.2793 17.3178C97.2462 11.7157 98.8829 7.10521 98.9162 7.07152C98.95 7.03782 99.4607 6.90903 100.052 6.78532L101.125 6.56006V5.60591V4.65131H97.0531H92.9814V5.60591V6.56052L94.3236 6.79178C95.0617 6.91872 95.6937 7.05028 95.7275 7.08398C95.8428 7.19892 91.0497 21.939 90.8191 22.1776C90.6802 22.3221 90.6339 22.2644 90.5566 21.8503C90.5052 21.5738 89.4338 18.2152 88.1758 14.3857C86.9178 10.5567 85.888 7.33509 85.888 7.22616C85.888 7.07844 86.2195 6.97089 87.2016 6.79917L88.5151 6.57021V5.61099V4.65131H83.5896H78.6641V5.61515ZM103.489 5.55744V6.46404L104.376 6.66161C104.864 6.77055 105.484 6.8998 105.755 6.94873L106.248 7.03782V15.9164V24.7945L104.901 25.1033L103.555 25.4116L103.516 26.2933L103.477 27.1754H108.409H113.34V26.2748V25.3747L112.914 25.2921C112.679 25.2464 112.058 25.1153 111.534 25.0008L110.582 24.7917V15.9284V7.06459L111.797 6.82179C112.465 6.68792 113.086 6.55129 113.177 6.51759C113.286 6.47697 113.34 6.15661 113.34 5.55421V4.65131H108.415H103.489V5.55744ZM118.288 4.73901C118.24 4.78702 118.201 5.20062 118.201 5.65854C118.201 6.61453 118.178 6.59606 119.678 6.87395L120.565 7.03828V15.9131V24.788L119.284 25.1042L118.003 25.4204L117.965 26.2979L117.926 27.1754H122.075H126.225L126.186 26.2979L126.147 25.4204L124.867 25.1042L123.586 24.788L123.587 17.7646L123.588 10.7408L123.948 11.3571C124.146 11.6964 126.525 15.3911 129.234 19.5677L134.16 27.1616L136.163 27.1685L138.166 27.1754V17.1142V7.05305L139.25 6.82686C140.933 6.47512 140.793 6.59006 140.793 5.55929V4.65131H136.655H132.518V5.56298V6.47466L133.01 6.60299C133.281 6.67315 133.872 6.80517 134.324 6.89611L135.145 7.0609V13.9098C135.145 20.5477 135.108 21.1648 134.761 20.3986C134.671 20.2006 132.401 16.5774 129.716 12.3472L124.834 4.65593L121.605 4.65362C119.829 4.65269 118.336 4.69101 118.288 4.73901ZM145.128 5.61699V6.58683L145.62 6.67684C145.891 6.7267 146.393 6.8264 146.737 6.89888L147.36 7.03043V15.9094V24.788L146.08 25.1042L144.799 25.4204L144.76 26.2979L144.722 27.1754H148.871H153.021L152.982 26.2979L152.943 25.4204L151.662 25.1042L150.381 24.788V17.7974C150.381 11.5611 150.443 10.1569 150.678 11.0524C150.713 11.1877 153.065 14.8704 155.903 19.2367L161.064 27.1754H163.011H164.96L164.994 17.1281L165.027 7.08029L166.012 6.85318C166.554 6.72808 167.13 6.59283 167.293 6.55267C167.564 6.48574 167.588 6.40496 167.588 5.56575V4.65131H163.451H159.313V5.55929C159.313 6.59006 159.173 6.47512 160.857 6.82686L161.941 7.05305V13.9061C161.941 17.6751 161.912 20.7586 161.878 20.7586C161.843 20.7586 161.701 20.5375 161.561 20.2675C161.422 19.9974 159.152 16.3881 156.516 12.2466L151.725 4.71686L148.426 4.68178L145.128 4.64716V5.61699ZM53.5614 16.4251C53.9305 17.4623 54.2328 18.3315 54.2328 18.3564C54.2328 18.3814 52.9322 18.4017 51.3427 18.4017C49.1193 18.4017 48.453 18.3638 48.4521 18.2378C48.4516 18.1478 49.0378 16.3651 49.7541 14.2763C50.4708 12.188 51.0959 10.3051 51.1431 10.0932C51.2163 9.76638 51.3575 10.0789 52.0599 12.1229C52.5164 13.4514 53.192 15.3874 53.5614 16.4251Z" fill="#A7A7A7"/>
<path d="M0.49563 23.6341C0.442216 23.6341 0.409912 19.2636 0.409912 12.0099V0.385742H15.9265H31.443L31.4196 5.0483L31.396 9.71053L30.1668 10.274C29.491 10.5836 28.7765 10.9044 28.5791 10.987C28.3818 11.0692 27.9039 11.2778 27.5169 11.4506L26.8139 11.765V8.38211V4.99919H15.9255H5.0374V13.3036V21.608L2.80937 22.621C1.58406 23.1781 0.542967 23.6341 0.49563 23.6341Z" fill="#3F8EFF"/>
<path d="M28.803 15.705C28.9236 15.5634 29.5566 14.8412 30.2094 14.1001L31.396 12.7526L31.419 21.7358C31.4318 26.6768 31.4283 30.7332 31.411 30.7504C31.3941 30.7673 27.8393 30.7711 23.5122 30.7583L15.6444 30.7351L17.1687 29.0112C18.007 28.0629 18.9115 27.0349 19.1783 26.7268L19.6638 26.1669H23.2387H26.8139V22.071V17.9754L27.0634 17.6954C27.2006 17.5414 27.4968 17.198 27.7213 16.932C27.9458 16.6664 28.2318 16.3396 28.3565 16.2056C28.4813 16.072 28.6821 15.8466 28.803 15.705Z" fill="#3F8EFF"/>
<path d="M29.8534 11.6498C30.1032 11.5388 30.5318 11.343 30.8062 11.2145C31.491 10.8934 31.5118 10.9078 31.0752 11.3992C30.407 12.152 27.5272 15.4272 27.0484 15.9788C26.7947 16.2712 26.5459 16.556 26.4953 16.6121C26.4448 16.6679 26.0172 17.1615 25.5448 17.7087C25.0727 18.2562 24.5779 18.826 24.4455 18.9753C24.3131 19.1245 23.6842 19.8368 23.0484 20.5581C22.4122 21.2797 21.7837 21.9921 21.6513 22.1413C21.5189 22.2906 21.0241 22.8604 20.552 23.4079C20.0796 23.9551 19.6494 24.4436 19.596 24.4933C19.5423 24.5431 19.2765 24.8482 19.0049 25.1713C18.7337 25.4946 17.6539 26.736 16.6055 27.9305C15.557 29.1246 14.5742 30.2547 14.4216 30.4419L14.1437 30.7818L8.93629 30.7585L3.72892 30.735L4.45113 30.2123C5.18581 29.6808 6.82021 28.5115 7.39656 28.1049C7.5712 27.9818 7.87729 27.7586 8.07687 27.609C8.51377 27.2812 8.95164 26.9723 9.43076 26.6531C9.62651 26.523 9.86895 26.3399 9.9697 26.2462C10.0704 26.1528 10.1805 26.0762 10.2141 26.0762C10.248 26.0762 10.4136 25.9547 10.5825 25.8065C10.7514 25.6579 10.9279 25.5357 10.9746 25.5351C11.0213 25.5341 11.1438 25.4547 11.2468 25.3584C11.3498 25.2621 11.6012 25.0689 11.805 24.9289C12.2563 24.619 16.3231 21.6949 17.2266 21.0304C17.5842 20.7676 18.0365 20.4472 18.2322 20.3183C18.4279 20.1895 18.6704 20.0078 18.7711 19.914C18.8719 19.8206 18.9842 19.7441 19.0213 19.7441C19.058 19.7441 19.1431 19.6895 19.2103 19.6226C19.2775 19.5556 19.4946 19.393 19.6932 19.261C20.173 18.9421 20.2549 18.8834 23.003 16.8946C25.9986 14.7266 25.8963 14.7996 26.2468 14.5767C26.409 14.4734 26.5417 14.3714 26.5417 14.3497C26.5417 14.2856 26.1857 14.4922 25.3263 15.0547C24.8827 15.3452 24.5021 15.5831 24.481 15.5831C24.4595 15.5831 24.2708 15.695 24.0613 15.8318C23.8518 15.9686 23.5995 16.1303 23.5007 16.1912C23.4015 16.2521 22.8776 16.5776 22.3364 16.915C21.7953 17.2521 21.2835 17.5687 21.1991 17.6184C20.8153 17.8452 18.3038 19.4214 18.0841 19.5738C17.9491 19.6675 17.8129 19.7441 17.7815 19.7441C17.7502 19.7441 17.5545 19.8604 17.3469 20.0023C17.139 20.1446 16.5198 20.5371 15.9709 20.8748C14.9119 21.5262 14.5575 21.7459 13.9748 22.1117C13.7752 22.237 13.1627 22.6161 12.6138 22.9545C12.0647 23.2928 11.4525 23.6722 11.2526 23.7982C11.053 23.9242 10.7367 24.1219 10.5496 24.2376C10.179 24.4666 10.1378 24.4925 8.20154 25.7071L8.13828 25.7468C7.37353 26.2267 6.72873 26.6193 6.70538 26.6193C6.68235 26.6193 6.5525 26.6964 6.41752 26.7911C6.28223 26.8858 5.59009 27.3233 4.8794 27.7637C3.1967 28.8061 3.32816 28.7251 1.98322 29.5513C1.34257 29.9448 0.726237 30.3262 0.613972 30.3982L0.409912 30.5296V27.7318V24.9337L0.976994 24.6786C1.28884 24.5383 1.76861 24.3247 2.04303 24.2035C2.31746 24.0826 2.70543 23.9079 2.90501 23.8148C3.72956 23.4315 6.56401 22.1487 6.94271 21.9873C7.16723 21.8917 7.51426 21.7373 7.71417 21.6445C8.1709 21.4322 12.8508 19.3196 13.3396 19.105C13.5391 19.0177 14.7347 18.4743 15.9959 17.8978C17.2573 17.3213 18.3086 16.8493 18.3323 16.8493C18.3557 16.8493 18.6304 16.731 18.9423 16.5863C19.6763 16.246 22.8623 14.7955 23.2752 14.6134C24.6575 14.0043 25.3938 13.6734 27.4037 12.7591C28.5014 12.2595 29.6039 11.7604 29.8534 11.6498Z" fill="#AFACAD"/>
</svg>
