<svg width="168" height="31" viewBox="0 0 168 31" fill="none" xmlns="http://www.w3.org/2000/svg">
<path fill-rule="evenodd" clip-rule="evenodd" d="M50.0935 4.68064C50.0597 4.77296 48.4373 9.31979 46.4885 14.7852C44.5396 20.2506 42.9172 24.7504 42.883 24.7841C42.8492 24.8183 42.3598 24.9429 41.7954 25.0615L40.7693 25.2766L40.7304 26.2262L40.692 27.1757H44.8355H48.9785V26.2728C48.9785 25.2277 49.073 25.3006 47.4325 25.0772C46.7357 24.9826 46.2195 24.8506 46.2181 24.767C46.2167 24.6872 46.4973 23.7815 46.8413 22.7539L47.4663 20.8858L51.2723 20.9204L55.0783 20.9555L55.7191 22.8306C56.0714 23.8618 56.3321 24.7333 56.2978 24.7675C56.264 24.8012 55.682 24.9341 55.0046 25.0624L53.773 25.2965L53.7341 26.2358L53.6957 27.1757H58.6272H63.5583V26.264V25.3523L63.0661 25.2245C62.7953 25.1538 62.3369 25.0555 62.048 25.0061C61.7591 24.9563 61.4363 24.87 61.3308 24.8136C61.2252 24.7578 59.4158 20.1833 57.3095 14.649L53.4804 4.58647L51.8177 4.54954C50.5602 4.52184 50.1402 4.55369 50.0935 4.68064ZM66.1855 5.55954C66.1855 6.594 66.0368 6.47675 67.7944 6.8308L68.9441 7.06253V15.9272V24.7919L67.9917 25.001C67.468 25.1155 66.8471 25.2466 66.6124 25.2923L66.1855 25.375V26.2751V27.1757H71.1114H76.037V26.2589C76.037 25.6122 75.9883 25.3426 75.8726 25.3431C75.7823 25.3436 75.1619 25.2185 74.4933 25.0652L73.2783 24.7859V15.9152V7.04453L74.428 6.82295C76.1786 6.4846 76.037 6.59584 76.037 5.55954V4.65155H71.1114H66.1855V5.55954ZM78.6641 5.61539V6.57876L79.7415 6.79433C80.3342 6.91251 80.8611 7.05376 80.9125 7.1073C80.9643 7.16131 82.6914 11.6837 84.7504 17.1579C86.8099 22.6316 88.536 27.2149 88.586 27.3432C88.6679 27.5514 88.8416 27.5727 90.1908 27.5399L91.7039 27.503L95.2793 17.3181C97.2462 11.716 98.8829 7.10546 98.9162 7.07176C98.95 7.03806 99.4607 6.90928 100.052 6.78556L101.125 6.5603V5.60616V4.65155H97.0531H92.9814V5.60616V6.56076L94.3236 6.79203C95.0617 6.91897 95.6937 7.05053 95.7275 7.08422C95.8428 7.19916 91.0497 21.9392 90.8191 22.1779C90.6802 22.3223 90.6339 22.2646 90.5566 21.8506C90.5052 21.5741 89.4338 18.2154 88.1758 14.3859C86.9178 10.5569 85.888 7.33534 85.888 7.2264C85.888 7.07868 86.2195 6.97113 87.2016 6.79941L88.5151 6.57046V5.61124V4.65155H83.5896H78.6641V5.61539ZM103.489 5.55769V6.46429L104.376 6.66185C104.864 6.77079 105.484 6.90004 105.755 6.94897L106.248 7.03806V15.9166V24.7947L104.901 25.1035L103.555 25.4119L103.516 26.2936L103.477 27.1757H108.409H113.34V26.2751V25.375L112.914 25.2923C112.679 25.2466 112.058 25.1155 111.534 25.001L110.582 24.7919V15.9286V7.06484L111.797 6.82203C112.465 6.68817 113.086 6.55153 113.177 6.51783C113.286 6.47721 113.34 6.15686 113.34 5.55446V4.65155H108.415H103.489V5.55769ZM118.288 4.73926C118.24 4.78727 118.201 5.20087 118.201 5.65878C118.201 6.61477 118.178 6.59631 119.678 6.87419L120.565 7.03853V15.9134V24.7882L119.284 25.1044L118.003 25.4206L117.965 26.2982L117.926 27.1757H122.075H126.225L126.186 26.2982L126.147 25.4206L124.867 25.1044L123.586 24.7882L123.587 17.7649L123.588 10.7411L123.948 11.3573C124.146 11.6966 126.525 15.3913 129.234 19.5679L134.16 27.1618L136.163 27.1688L138.166 27.1757V17.1145V7.0533L139.25 6.82711C140.933 6.47536 140.793 6.5903 140.793 5.55954V4.65155H136.655H132.518V5.56323V6.4749L133.01 6.60323C133.281 6.67339 133.872 6.80541 134.324 6.89635L135.145 7.06114V13.91C135.145 20.5479 135.108 21.1651 134.761 20.3988C134.671 20.2008 132.401 16.5776 129.716 12.3475L124.834 4.65617L121.605 4.65386C119.829 4.65294 118.336 4.69125 118.288 4.73926ZM145.128 5.61724V6.58707L145.62 6.67709C145.891 6.72694 146.393 6.82665 146.737 6.89912L147.36 7.03068V15.9097V24.7882L146.08 25.1044L144.799 25.4206L144.76 26.2982L144.722 27.1757H148.871H153.021L152.982 26.2982L152.943 25.4206L151.662 25.1044L150.381 24.7882V17.7977C150.381 11.5614 150.443 10.1571 150.678 11.0527C150.713 11.1879 153.065 14.8706 155.903 19.237L161.064 27.1757H163.011H164.96L164.994 17.1283L165.027 7.08053L166.012 6.85342C166.554 6.72832 167.13 6.59307 167.293 6.55291C167.564 6.48598 167.588 6.4052 167.588 5.566V4.65155H163.451H159.313V5.55954C159.313 6.5903 159.173 6.47536 160.857 6.82711L161.941 7.0533V13.9063C161.941 17.6753 161.912 20.7589 161.878 20.7589C161.843 20.7589 161.701 20.5378 161.561 20.2677C161.422 19.9977 159.152 16.3884 156.516 12.2468L151.725 4.7171L148.426 4.68202L145.128 4.6474V5.61724ZM53.5614 16.4253C53.9305 17.4625 54.2328 18.3317 54.2328 18.3567C54.2328 18.3816 52.9322 18.4019 51.3427 18.4019C49.1193 18.4019 48.453 18.3641 48.4521 18.238C48.4516 18.148 49.0378 16.3653 49.7541 14.2765C50.4708 12.1882 51.0959 10.3053 51.1431 10.0934C51.2163 9.76662 51.3575 10.0791 52.0599 12.1231C52.5164 13.4516 53.192 15.3876 53.5614 16.4253Z" fill="#26282E"/>
<path d="M0.49563 23.6341C0.442216 23.6341 0.409912 19.2636 0.409912 12.0099V0.385742H15.9265H31.443L31.4196 5.0483L31.396 9.71053L30.1668 10.274C29.491 10.5836 28.7765 10.9044 28.5791 10.987C28.3818 11.0692 27.9039 11.2778 27.5169 11.4506L26.8139 11.765V8.38211V4.99919H15.9255H5.0374V13.3036V21.608L2.80937 22.621C1.58406 23.1781 0.542967 23.6341 0.49563 23.6341Z" fill="#3F8EFF"/>
<path d="M28.803 15.705C28.9236 15.5634 29.5566 14.8412 30.2094 14.1001L31.396 12.7526L31.419 21.7358C31.4318 26.6768 31.4283 30.7332 31.411 30.7504C31.3941 30.7673 27.8393 30.7711 23.5122 30.7583L15.6444 30.7351L17.1687 29.0112C18.007 28.0629 18.9115 27.0349 19.1783 26.7268L19.6638 26.1669H23.2387H26.8139V22.071V17.9754L27.0634 17.6954C27.2006 17.5414 27.4968 17.198 27.7213 16.932C27.9458 16.6664 28.2318 16.3396 28.3565 16.2056C28.4813 16.072 28.6821 15.8466 28.803 15.705Z" fill="#3F8EFF"/>
<path d="M29.8534 11.65C30.1032 11.5391 30.5318 11.3433 30.8062 11.2148C31.491 10.8937 31.5118 10.908 31.0752 11.3994C30.407 12.1523 27.5272 15.4274 27.0484 15.979C26.7947 16.2715 26.5459 16.5562 26.4953 16.6123C26.4448 16.6681 26.0172 17.1617 25.5448 17.7089C25.0727 18.2564 24.5779 18.8263 24.4455 18.9755C24.3131 19.1247 23.6842 19.8371 23.0484 20.5584C22.4122 21.28 21.7837 21.9923 21.6513 22.1416C21.5189 22.2908 21.0241 22.8606 20.552 23.4081C20.0796 23.9553 19.6494 24.4438 19.596 24.4936C19.5423 24.5433 19.2765 24.8485 19.0049 25.1715C18.7337 25.4948 17.6539 26.7362 16.6055 27.9307C15.557 29.1249 14.5742 30.255 14.4216 30.4422L14.1437 30.7821L8.93629 30.7588L3.72892 30.7352L4.45113 30.2126C5.18581 29.681 6.82021 28.5117 7.39656 28.1051C7.5712 27.9821 7.87729 27.7588 8.07687 27.6093C8.51377 27.2815 8.95164 26.9725 9.43076 26.6533C9.62651 26.5232 9.86895 26.3402 9.9697 26.2464C10.0704 26.153 10.1805 26.0765 10.2141 26.0765C10.248 26.0765 10.4136 25.955 10.5825 25.8067C10.7514 25.6581 10.9279 25.536 10.9746 25.5353C11.0213 25.5344 11.1438 25.455 11.2468 25.3587C11.3498 25.2624 11.6012 25.0691 11.805 24.9292C12.2563 24.6192 16.3231 21.6952 17.2266 21.0306C17.5842 20.7679 18.0365 20.4474 18.2322 20.3186C18.4279 20.1898 18.6704 20.008 18.7711 19.9143C18.8719 19.8208 18.9842 19.7443 19.0213 19.7443C19.058 19.7443 19.1431 19.6898 19.2103 19.6228C19.2775 19.5558 19.4946 19.3932 19.6932 19.2612C20.173 18.9423 20.2549 18.8837 23.003 16.8949C25.9986 14.7268 25.8963 14.7999 26.2468 14.577C26.409 14.4737 26.5417 14.3716 26.5417 14.3499C26.5417 14.2858 26.1857 14.4925 25.3263 15.055C24.8827 15.3454 24.5021 15.5833 24.481 15.5833C24.4595 15.5833 24.2708 15.6953 24.0613 15.832C23.8518 15.9688 23.5995 16.1305 23.5007 16.1914C23.4015 16.2523 22.8776 16.5779 22.3364 16.9153C21.7953 17.2523 21.2835 17.5689 21.1991 17.6187C20.8153 17.8454 18.3038 19.4216 18.0841 19.574C17.9491 19.6678 17.8129 19.7443 17.7815 19.7443C17.7502 19.7443 17.5545 19.8607 17.3469 20.0026C17.139 20.1448 16.5198 20.5373 15.9709 20.875C14.9119 21.5265 14.5575 21.7462 13.9748 22.1119C13.7752 22.2372 13.1627 22.6164 12.6138 22.9547C12.0647 23.293 11.4525 23.6725 11.2526 23.7984C11.053 23.9244 10.7367 24.1221 10.5496 24.2378C10.179 24.4669 10.1378 24.4927 8.20154 25.7074L8.13828 25.7471C7.37353 26.227 6.72873 26.6195 6.70538 26.6195C6.68235 26.6195 6.5525 26.6967 6.41752 26.7914C6.28223 26.8861 5.59009 27.3236 4.8794 27.7639C3.1967 28.8063 3.32816 28.7253 1.98322 29.5515C1.34257 29.945 0.726237 30.3264 0.613972 30.3985L0.409912 30.5298V27.7321V24.9339L0.976994 24.6788C1.28884 24.5385 1.76861 24.3249 2.04303 24.2037C2.31746 24.0829 2.70543 23.9081 2.90501 23.815C3.72956 23.4317 6.56401 22.1489 6.94271 21.9876C7.16723 21.8919 7.51426 21.7376 7.71417 21.6448C8.1709 21.4324 12.8508 19.3199 13.3396 19.1053C13.5391 19.0179 14.7347 18.4745 15.9959 17.898C17.2573 17.3215 18.3086 16.8496 18.3323 16.8496C18.3557 16.8496 18.6304 16.7313 18.9423 16.5865C19.6763 16.2463 22.8623 14.7957 23.2752 14.6136C24.6575 14.0046 25.3938 13.6736 27.4037 12.7594C28.5014 12.2597 29.6039 11.7607 29.8534 11.65Z" fill="#AFACAD"/>
</svg>
